<svg width="25" height="24" viewBox="0 0 25 24" fill="none" xmlns="http://www.w3.org/2000/svg">
<path d="M9.5 6.74999V15M15.5 8.99999V17.25M16.0031 20.7484L20.8781 18.3109C21.2592 18.1204 21.5 17.7308 21.5 17.3047V4.82028C21.5 3.98398 20.6199 3.44004 19.8719 3.81405L16.0031 5.74844C15.6864 5.9068 15.3136 5.9068 14.9969 5.74844L10.0031 3.25155C9.6864 3.09319 9.3136 3.09319 8.99688 3.25155L4.12188 5.68905C3.74075 5.87962 3.5 6.26916 3.5 6.69528V19.1797C3.5 20.016 4.3801 20.5599 5.12811 20.1859L8.99688 18.2516C9.3136 18.0932 9.6864 18.0932 10.0031 18.2516L14.9969 20.7484C15.3136 20.9068 15.6864 20.9068 16.0031 20.7484Z" stroke="white" stroke-width="1.5" stroke-linecap="round" stroke-linejoin="round"/>
</svg>
