<svg width="25" height="24" viewBox="0 0 25 24" fill="none" xmlns="http://www.w3.org/2000/svg">
<path fill-rule="evenodd" clip-rule="evenodd" d="M8.66147 2.58076C9.18934 2.31683 9.81066 2.31683 10.3385 2.58076L15.3323 5.07765C15.4379 5.13043 15.5621 5.13043 15.6677 5.07765L19.5365 3.14326C20.7832 2.51992 22.25 3.42647 22.25 4.82031V17.3047C22.25 18.0149 21.8487 18.6642 21.2135 18.9818L16.3385 21.4193C15.8107 21.6832 15.1893 21.6832 14.6615 21.4193L9.66771 18.9224C9.56213 18.8696 9.43787 18.8696 9.3323 18.9224L5.46353 20.8568C4.21683 21.4801 2.75 20.5736 2.75 19.1797V6.69531C2.75 5.98512 3.15125 5.33587 3.78647 5.01826L8.66147 2.58076ZM9.5 6.00002C9.91421 6.00002 10.25 6.3358 10.25 6.75002V15C10.25 15.4142 9.91421 15.75 9.5 15.75C9.08579 15.75 8.75 15.4142 8.75 15V6.75002C8.75 6.3358 9.08579 6.00002 9.5 6.00002ZM16.25 9.00002C16.25 8.5858 15.9142 8.25002 15.5 8.25002C15.0858 8.25002 14.75 8.5858 14.75 9.00002V17.25C14.75 17.6642 15.0858 18 15.5 18C15.9142 18 16.25 17.6642 16.25 17.25V9.00002Z" fill="#4D37DE"/>
</svg>
