<svg width="21" height="20" viewBox="0 0 21 20" fill="none" xmlns="http://www.w3.org/2000/svg">
<path d="M12 19V11.5C12 11.0858 12.3358 10.75 12.75 10.75H15.75C16.1642 10.75 16.5 11.0858 16.5 11.5V19M12 19H0.860879M12 19H16.5M16.5 19H20.1391M18.75 19V7.34879M2.25 19V7.34903M2.25 7.34903C3.39729 8.01217 4.88977 7.85296 5.87132 6.87142C5.91594 6.8268 5.95886 6.78112 6.00008 6.73447C6.54979 7.35723 7.35402 7.75001 8.25 7.75001C9.14602 7.75001 9.95029 7.3572 10.5 6.73438C11.0497 7.3572 11.854 7.75001 12.75 7.75001C13.6459 7.75001 14.4501 7.35728 14.9998 6.73459C15.041 6.78117 15.0838 6.82678 15.1284 6.87133C16.11 7.85296 17.6027 8.01211 18.75 7.34879M2.25 7.34903C2.02788 7.22065 1.81871 7.06145 1.62868 6.87142C0.457107 5.69985 0.457107 3.80035 1.62868 2.62878L2.81797 1.43949C3.09927 1.15819 3.4808 1.00015 3.87863 1.00015H17.1212C17.519 1.00015 17.9005 1.15819 18.1818 1.43949L19.371 2.62869C20.5426 3.80027 20.5426 5.69976 19.371 6.87133C19.1811 7.06128 18.972 7.22043 18.75 7.34879M5.25 16H9C9.41421 16 9.75 15.6642 9.75 15.25V11.5C9.75 11.0858 9.41421 10.75 9 10.75H5.25C4.83579 10.75 4.5 11.0858 4.5 11.5V15.25C4.5 15.6642 4.83579 16 5.25 16Z" stroke="white" stroke-width="1.5" stroke-linecap="round" stroke-linejoin="round"/>
</svg>
