<svg width="21" height="20" viewBox="0 0 21 20" fill="none" xmlns="http://www.w3.org/2000/svg">
<path d="M3.72335 0.25C3.22607 0.25 2.74916 0.447544 2.39752 0.799175L1.09835 2.09835C-0.366117 3.56282 -0.366117 5.93718 1.09835 7.40165C2.43551 8.73881 4.53124 8.85505 6.00029 7.75038C6.62669 8.22063 7.40598 8.5 8.25 8.5C9.09415 8.5 9.87355 8.22055 10.5 7.75016C11.1264 8.22055 11.9059 8.5 12.75 8.5C13.594 8.5 14.3733 8.22063 14.9997 7.75038C16.4688 8.85505 18.5645 8.73881 19.9016 7.40165C21.3661 5.93718 21.3661 3.56282 19.9016 2.09835L18.6025 0.799179C18.2508 0.447548 17.7739 0.250004 17.2767 0.250004L3.72335 0.25Z" fill="#4D37DE"/>
<path fill-rule="evenodd" clip-rule="evenodd" d="M1.5 18.25V9.49511C2.92021 10.1686 4.5799 10.1681 6.00044 9.49437C6.68265 9.81825 7.44611 10 8.25 10C9.05406 10 9.81767 9.81818 10.5 9.49416C11.1823 9.81818 11.9459 10 12.75 10C13.5539 10 14.3173 9.81825 14.9996 9.49437C16.4201 10.1681 18.0798 10.1686 19.5 9.49511V18.25H20.25C20.6642 18.25 21 18.5858 21 19C21 19.4142 20.6642 19.75 20.25 19.75H0.75C0.335786 19.75 0 19.4142 0 19C0 18.5858 0.335786 18.25 0.75 18.25H1.5ZM4.5 12.25C4.5 11.8358 4.83579 11.5 5.25 11.5H8.25C8.66421 11.5 9 11.8358 9 12.25V15.25C9 15.6642 8.66421 16 8.25 16H5.25C4.83579 16 4.5 15.6642 4.5 15.25V12.25ZM12.75 11.5C12.3358 11.5 12 11.8358 12 12.25V17.5C12 17.9142 12.3358 18.25 12.75 18.25H15.75C16.1642 18.25 16.5 17.9142 16.5 17.5V12.25C16.5 11.8358 16.1642 11.5 15.75 11.5H12.75Z" fill="#4D37DE"/>
</svg>
