<svg width="17" height="22" viewBox="0 0 17 22" fill="none" xmlns="http://www.w3.org/2000/svg">
<path fill-rule="evenodd" clip-rule="evenodd" d="M4.00009 5C4.00009 2.51472 6.01481 0.5 8.50009 0.5C10.9854 0.5 13.0001 2.51472 13.0001 5C13.0001 7.48528 10.9854 9.5 8.50009 9.5C6.01481 9.5 4.00009 7.48528 4.00009 5Z" fill="#4D37DE"/>
<path fill-rule="evenodd" clip-rule="evenodd" d="M0.251333 19.1053C0.328673 14.6156 3.99207 11 8.50009 11C13.0082 11 16.6717 14.6157 16.7488 19.1056C16.754 19.4034 16.5824 19.676 16.3117 19.8002C13.9328 20.8918 11.2866 21.5 8.50041 21.5C5.71395 21.5 3.06752 20.8917 0.688408 19.7999C0.417738 19.6757 0.246203 19.4031 0.251333 19.1053Z" fill="#4D37DE"/>
</svg>
