<svg width="22" height="19" viewBox="0 0 22 19" fill="none" xmlns="http://www.w3.org/2000/svg">
<path d="M5.82689 4.07968C5.46581 4.65832 4.86127 5.03876 4.186 5.13473C3.80655 5.18865 3.42853 5.24701 3.05199 5.30976C1.99912 5.4852 1.25 6.41141 1.25 7.4788V15.9048C1.25 17.1474 2.25736 18.1548 3.5 18.1548H18.5C19.7426 18.1548 20.75 17.1474 20.75 15.9048V7.47881C20.75 6.41142 20.0009 5.48521 18.948 5.30976C18.5715 5.24702 18.1934 5.18866 17.814 5.13473C17.1387 5.03877 16.5342 4.65833 16.1731 4.07969L15.3519 2.76368C14.9734 2.15715 14.3294 1.76317 13.6155 1.72483C12.7496 1.67833 11.8775 1.65479 11 1.65479C10.1225 1.65479 9.25044 1.67833 8.3845 1.72483C7.6706 1.76317 7.02658 2.15715 6.64809 2.76368L5.82689 4.07968Z" stroke="black" stroke-width="1.5" stroke-linecap="round" stroke-linejoin="round"/>
<path d="M15.5 10.6548C15.5 13.1401 13.4853 15.1548 11 15.1548C8.51472 15.1548 6.5 13.1401 6.5 10.6548C6.5 8.1695 8.51472 6.15479 11 6.15479C13.4853 6.15479 15.5 8.1695 15.5 10.6548Z" stroke="black" stroke-width="1.5" stroke-linecap="round" stroke-linejoin="round"/>
<path d="M17.75 8.40479H17.7575V8.41229H17.75V8.40479Z" stroke="black" stroke-width="1.5" stroke-linecap="round" stroke-linejoin="round"/>
</svg>
