<svg width="22" height="22" viewBox="0 0 22 22" fill="none" xmlns="http://www.w3.org/2000/svg">
<path d="M1.25 5.65479C1.25 13.9391 7.96573 20.6548 16.25 20.6548H18.5C19.7426 20.6548 20.75 19.6474 20.75 18.4048V17.0332C20.75 16.5169 20.3987 16.067 19.8979 15.9417L15.4747 14.836C15.0355 14.7262 14.5734 14.8903 14.3018 15.2524L13.3316 16.546C13.05 16.9214 12.563 17.0874 12.1223 16.926C8.81539 15.7146 6.19015 13.0894 4.97876 9.78244C4.81734 9.34178 4.98336 8.85477 5.3588 8.57318L6.65242 7.60297C7.01453 7.33139 7.17861 6.86924 7.06883 6.43012L5.96304 2.00693C5.83783 1.50612 5.38785 1.15479 4.87163 1.15479H3.5C2.25736 1.15479 1.25 2.16214 1.25 3.40479V5.65479Z" stroke="black" stroke-width="1.5" stroke-linecap="round" stroke-linejoin="round"/>
</svg>
