<svg width="22" height="18" viewBox="0 0 22 18" fill="none" xmlns="http://www.w3.org/2000/svg">
<path d="M1.25 12.6548L6.40901 7.49577C7.28769 6.61709 8.71231 6.6171 9.59099 7.49578L14.75 12.6548M13.25 11.1548L14.659 9.74577C15.5377 8.86709 16.9623 8.8671 17.841 9.74578L20.75 12.6548M2.75 16.4048H19.25C20.0784 16.4048 20.75 15.7332 20.75 14.9048V2.90479C20.75 2.07636 20.0784 1.40479 19.25 1.40479H2.75C1.92157 1.40479 1.25 2.07636 1.25 2.90479V14.9048C1.25 15.7332 1.92157 16.4048 2.75 16.4048ZM13.25 5.15479H13.2575V5.16229H13.25V5.15479ZM13.625 5.15479C13.625 5.36189 13.4571 5.52979 13.25 5.52979C13.0429 5.52979 12.875 5.36189 12.875 5.15479C12.875 4.94768 13.0429 4.77979 13.25 4.77979C13.4571 4.77979 13.625 4.94768 13.625 5.15479Z" stroke="black" stroke-width="1.5" stroke-linecap="round" stroke-linejoin="round"/>
</svg>
