<svg width="169" height="70" viewBox="0 0 169 70" fill="none" xmlns="http://www.w3.org/2000/svg">
<path d="M14.0055 33.0681C13.9513 32.5798 14.0462 32.0644 14.0868 31.5626C14.1952 30.1046 13.8226 28.6669 13.0705 27.6768C12.9485 27.5208 12.8198 27.3716 12.6572 27.2971C12.3455 27.1614 11.9796 27.331 11.6544 27.5073C11.5053 26.7884 11.031 26.2324 10.4618 26.0967C9.89267 25.9611 9.2422 26.2595 8.82211 26.863C8.69337 27.0461 8.55108 27.2767 8.36814 27.2699C8.13776 27.2564 8.04968 26.8698 7.83963 26.7817C7.69057 26.7206 7.52118 26.8359 7.37211 26.9444C7.08075 27.1614 6.78262 27.3716 6.49127 27.5886C6.40996 27.6972 6.32188 27.8124 6.24057 27.9209C6.37608 27.3581 6.28122 26.7613 6.07795 26.2866C5.8679 25.8119 5.55622 25.4457 5.22421 25.1202C5.12935 25.0253 5.02094 24.9168 5.00061 24.754C4.98029 24.598 5.03449 24.442 5.08192 24.2929C5.3394 23.4859 5.3665 22.5771 5.15646 21.7973C5.1158 21.6616 5.07515 21.5192 5.08192 21.37C5.0887 21.2276 5.14968 21.092 5.19711 20.9564C5.52912 20.0748 5.57655 19.0915 5.6172 18.1353C5.8137 18.6303 6.21347 18.9558 6.64711 18.9626C7.08076 18.9694 7.52118 18.6642 7.77865 18.1827C7.96837 19.044 8.5172 19.7154 9.17445 19.912C8.93052 20.6715 8.92375 21.5464 9.15412 22.2652C9.27608 22.645 9.61487 23.0179 9.8859 22.7467C10.0282 23.3163 10.6448 23.4452 11.0581 23.1061C11.4714 22.7738 11.695 22.1363 11.7831 21.5328C11.8509 21.5803 11.9186 21.6345 11.9864 21.682C12.2642 22.116 12.6504 22.5839 13.0908 22.4076C13.3551 22.3059 13.5516 21.9872 13.6464 21.6549C13.7413 21.3226 13.7413 20.9699 13.748 20.6241C13.748 20.1562 13.7616 19.6814 13.7684 19.2135C13.7684 18.7999 13.7752 18.393 13.7819 17.9793C13.7955 16.8332 13.8023 15.6397 13.3889 14.6496C12.9756 13.6595 12.0067 12.9746 11.1801 13.4561C10.8413 12.3507 9.96721 11.564 9.02538 11.5437C8.09033 11.5233 7.14174 12.2761 6.69454 13.4018C5.99664 12.6219 5.02772 12.0523 4.13332 12.4931C3.6929 12.7101 3.32701 13.1509 2.97468 13.5781C2.70365 13.9036 2.43262 14.2495 2.28356 14.6903C2.22935 14.853 2.1887 15.0294 2.10739 15.1718C1.91089 15.5041 1.55178 15.5176 1.28075 15.7211C0.833556 16.0534 0.677715 16.8264 0.609958 17.5046C0.433789 19.2 0.467668 20.9225 0.704818 22.5636L0.637061 22.5229C0.189864 23.6079 0.250845 25.0049 0.77935 25.8865C0.542201 26.0153 0.366032 26.3341 0.284724 26.6664C0.203415 26.9987 0.210191 27.3513 0.230518 27.6904C0.2915 28.8568 0.528649 29.9757 0.908089 30.959C1.03683 31.2913 1.22655 31.644 1.5179 31.6236C1.55178 31.5355 1.58566 31.4473 1.61954 31.3524C1.65342 31.6847 1.68729 32.017 1.77538 32.3153C1.86346 32.6137 2.02608 32.8782 2.2429 32.9935C2.59524 33.1698 3.02888 32.9392 3.34734 32.5798C3.4151 32.5323 3.48286 32.4917 3.55061 32.4442C3.82164 32.885 4.1672 33.2715 4.60762 33.3258C5.04804 33.38 5.57655 33.0003 5.69851 32.4035C6.01697 32.6883 6.35575 32.9325 6.71487 33.1291C7.14174 33.3665 7.62281 33.536 8.11066 33.4004C8.42912 33.3122 8.74758 33.0681 8.95762 32.7358C8.90342 33.1969 8.86276 33.6649 8.84244 34.126C8.82211 34.5668 8.82211 35.0211 8.93052 35.4213C9.03893 35.8214 9.26931 36.1604 9.58777 36.2418C9.1609 36.4792 8.94407 37.1505 8.88987 37.7473C8.80178 38.6696 8.97118 39.5919 9.35739 40.27C9.04571 40.5209 8.89664 41.077 9.00505 41.4703C8.95085 41.4229 8.86954 41.4025 8.80178 41.4093C8.38847 41.4432 7.9616 41.7958 7.73122 42.2977C7.66347 41.7958 7.2637 41.5381 6.87071 41.5788C6.47772 41.6195 6.0915 41.884 5.72561 42.1485C5.75272 41.2669 5.09547 40.7447 4.96674 39.9038C4.85832 39.185 5.1158 38.2084 4.68893 37.788V38.3169C4.60085 37.944 4.49921 37.571 4.31627 37.2726C4.13332 36.9742 3.85552 36.7708 3.55061 36.8182C2.99501 36.9064 2.61557 37.7609 2.4394 38.5136C2.32421 38.0186 2.10061 37.5506 1.72795 37.415C1.36206 37.2794 0.853883 37.6252 0.772575 38.1745C0.711593 38.595 0.867434 39.09 0.623509 39.3884C0.542201 39.4834 0.440565 39.524 0.366032 39.619C0.271173 39.7343 0.230518 39.9038 0.19664 40.0598C0.0679014 40.6294 -0.0269584 41.2194 0.00692008 41.7755C0.0407986 42.3384 0.230518 42.8673 0.576079 43.1047C0.657388 43.0368 0.738696 42.969 0.820005 42.9012C0.677715 43.9049 0.548976 44.956 0.786126 45.8376C1.0165 46.7192 1.73472 47.3295 2.43262 46.9226C2.62234 47.5058 3.05599 47.8788 3.54384 47.8924C4.03169 47.906 4.56697 47.5669 4.92608 47.0108C5.66463 47.4584 6.54547 47.8788 7.35856 47.2685C7.7922 46.943 8.18519 46.3394 8.63917 46.3598C8.82889 46.3666 8.98473 46.4886 9.16767 46.5429C9.75716 46.726 10.516 46.075 10.6922 45.2408C10.8074 45.2612 10.9158 45.2747 11.031 45.2951C11.1597 45.5257 11.3562 45.6884 11.573 45.7427C11.8983 45.8308 12.3048 45.6681 12.542 45.2815C12.7114 45.0103 12.7723 44.678 12.8333 44.3525C12.8943 44.0134 12.9553 43.6743 13.023 43.342C13.0434 43.2267 13.0705 43.1115 13.0908 42.9962C13.5583 42.8809 13.8158 42.1349 13.8903 41.5246C13.9581 40.9821 13.9784 40.4328 13.9445 39.9038C13.931 39.7275 13.9174 39.5512 13.9445 39.3681C13.9716 39.1985 14.0259 39.0358 14.0801 38.8798C14.6153 37.2929 14.6831 35.5365 14.2698 34.0514C14.1749 33.7123 14.0597 33.3868 14.0191 33.0206L14.0055 33.0681ZM33.4518 39.7071C33.384 39.2867 33.0791 38.968 32.7132 38.9341C32.8013 37.8626 32.5913 36.8318 32.2796 35.8756C32.1847 35.5908 32.0696 35.2856 31.846 35.1432C31.6156 35.0008 31.2497 35.1093 31.1616 35.428C30.9312 34.2277 30.6263 33.0613 30.2537 31.9288C30.1181 31.5151 29.7658 31.0404 29.4338 31.3185C29.5083 30.0978 29.3525 28.8839 28.9866 27.7921C28.8917 27.5005 28.641 27.1682 28.4039 27.3581C28.763 26.7952 29.1221 26.2256 29.3389 25.5813C29.549 24.9371 29.5964 24.1911 29.3186 23.6283C29.759 23.0858 30.2062 22.5432 30.5247 21.899C30.8431 21.2548 31.0329 20.4952 30.9041 19.8035C32.178 18.8609 32.991 17.0774 32.9165 15.3617C33.1875 14.7581 33.3908 14.1139 33.5263 13.4628C33.6144 13.0085 33.6618 12.4863 33.4247 12.1269C33.1875 11.7675 32.5777 11.7878 32.4761 12.249C32.2525 11.7675 31.785 11.4759 31.3174 11.5166C30.8499 11.564 30.4027 11.9438 30.213 12.466C30.2672 11.8217 29.8403 11.1775 29.3051 11.1639C28.763 11.1504 28.2684 11.8692 28.4242 12.4795C27.8212 12.5812 27.3604 13.2594 27.1436 13.9579C26.9268 14.6564 26.8861 15.4091 26.7167 16.128C26.6829 16.2771 26.6354 16.4263 26.5474 16.5416C26.466 16.6433 26.3576 16.6908 26.256 16.7586C25.5581 17.2062 25.2464 18.2031 25.0228 19.1118C24.6434 20.6241 24.3317 22.1635 24.0742 23.7164C23.3966 24.2657 22.9562 25.249 22.9495 26.212C22.8817 25.7644 22.9562 25.2897 23.0308 24.8354L22.8614 24.8964C22.7936 23.2282 23.0104 21.37 23.2273 19.7832C23.2273 19.261 23.0172 19.0169 23.0172 18.4879C22.8072 16.1415 23.4576 14.0054 23.0375 11.6725C23.0375 10.6214 23.0375 9.83475 23.2611 8.78362C23.2611 8.26145 22.8343 7.48836 22.841 6.9594C22.841 6.17275 23.0579 5.6438 23.2476 4.76221C23.2611 4.45704 23.2815 3.14143 22.8139 3.39913C23.1188 2.70742 23.2137 1.58169 23.0104 0.835731C22.753 -0.113675 22.0686 0.035517 21.7163 0.822168C21.3572 -0.127238 20.1917 0.211835 20.1917 1.25618C20.1511 1.10699 20.1104 0.951016 20.0698 0.801824C19.7649 0.64585 19.5819 0.123676 19.2567 0.184709C19.1686 0.198272 19.0873 0.266087 19.0128 0.32712C18.6198 0.64585 18.2065 0.998486 18.0438 1.54779C17.7796 1.4325 17.556 1.81904 17.4679 2.15134C17.163 3.35166 17.3392 4.72152 17.9219 5.71839C17.7051 5.73196 17.617 6.07781 17.6034 6.34907C17.5424 7.33238 17.6305 8.32248 17.8609 9.25154C17.5492 9.40752 17.4408 9.889 17.4069 10.3027C17.3121 11.4352 17.4815 12.5812 17.8812 13.5713L17.9761 13.7273C17.5289 14.9344 17.4747 16.3517 17.8338 17.5521C17.3459 18.298 17.1901 19.3085 17.2579 20.2307C17.3256 21.153 17.5966 22.0143 17.8812 22.8416C17.9354 22.9908 17.9896 23.1468 17.9964 23.3163C18.01 23.6079 17.8948 23.8927 17.8202 24.1776C17.6237 24.9167 17.6915 25.7373 18.01 26.3409L18.0235 26.4765C17.9964 26.4155 17.9219 26.4833 17.888 26.5511C17.6102 27.1546 17.4679 27.8531 17.4815 28.5177C17.4882 28.9246 17.5966 29.379 17.8948 29.4942L17.9354 29.5214C17.9354 29.5214 17.9219 29.5214 17.9151 29.5214C17.8609 29.5417 17.8135 29.6027 17.7796 29.6638C17.5966 29.9554 17.5086 30.3351 17.5357 30.6878C17.556 30.9048 17.6373 31.1286 17.8067 31.1761L17.888 31.3388C17.2037 32.9257 18.0574 34.1396 17.8406 35.7807C17.6238 36.6216 17.6238 37.693 17.6238 38.5C17.6238 38.7713 17.8338 39.0019 17.8338 39.2663C17.8338 40.6023 17.6102 42.2502 17.6102 43.5929C17.6102 44.9357 18.674 44.7187 19.1415 43.9117C19.5209 44.5559 20.3747 44.1219 21.0184 43.7421L21.2284 43.9659C21.8721 43.5794 22.509 43.4641 22.7259 42.379C22.7394 38.7035 22.7462 35.2924 22.9698 31.5083L23.0172 31.4337C23.0172 29.9079 23.0172 28.3753 23.0172 26.8495C23.0579 27.331 23.0985 27.826 23.2815 28.2397C23.4644 28.6533 23.81 28.9721 24.2097 28.9178C24.1894 29.7316 24.2843 30.5318 24.4875 31.2778C24.5892 31.6643 24.8399 32.0983 25.1719 31.9491C25.1583 32.8172 25.138 33.7055 25.3616 34.499C25.5784 35.2924 26.0866 35.9841 26.7777 36.0926C26.7438 37.1302 26.9539 38.1406 27.374 38.9747C27.4553 39.1375 27.6315 39.307 27.767 39.1646C27.828 39.7885 27.8889 40.4124 27.9431 41.0363C27.977 41.4229 28.0177 41.8162 28.1871 42.1281C28.3565 42.4333 28.6885 42.63 29.0002 42.4876C29.0882 42.4469 29.1831 42.3248 29.1763 42.2366C29.3051 42.6232 29.4541 43.0165 29.7523 43.2064C30.0572 43.3963 30.4773 43.3217 30.7822 43.0301C31.0803 42.7385 31.2429 42.2434 31.1684 41.8365C31.4936 42.6096 32.0018 43.2471 32.6252 43.6743C32.7132 43.7353 32.8217 43.7896 32.9233 43.7353C32.9775 43.7082 33.0182 43.654 33.0588 43.5997C33.3908 43.125 33.5399 42.4808 33.4382 41.9315C33.4247 41.8637 33.4111 41.7891 33.4247 41.7212C33.445 41.6195 33.5196 41.5381 33.5738 41.45C33.9735 40.8803 33.777 40.1005 33.567 39.4834C33.5331 39.558 33.4925 39.6325 33.4586 39.7139L33.4518 39.7071ZM19.1551 43.9117C19.0738 44.2914 19.2499 44.2507 19.1551 43.9117V43.9117ZM52.8303 13.6731C52.6948 13.7002 52.566 13.8087 52.4915 13.9375C52.3763 14.1478 52.3696 14.4055 52.3967 14.6428C52.417 14.8191 52.4576 14.9955 52.5118 15.165C52.5864 15.3888 52.7083 15.6126 52.9184 15.6736C53.1217 15.7346 53.3927 15.5244 53.3317 15.2938C53.3724 15.2531 53.4198 15.2125 53.4604 15.1718C53.9618 15.4091 54.592 15.2871 55.0121 14.8869C54.8495 16.1822 54.6936 17.5724 55.2221 18.7117C55.256 18.7863 55.2899 18.8541 55.2967 18.9355C55.3034 19.0508 55.256 19.1593 55.2154 19.261C54.9443 19.912 54.8698 20.6309 54.8427 21.3361C54.7885 22.6924 54.9037 24.0487 55.1883 25.344C55.2425 25.5881 55.3034 25.839 55.3102 26.0967C55.317 26.3205 55.2899 26.5375 55.2628 26.7613C55.1002 28.1108 55.1137 29.4807 55.2831 30.8031C55.3102 30.993 55.3373 31.1828 55.317 31.3795C55.2967 31.5762 55.2221 31.766 55.1679 31.9559C54.9037 32.824 54.9443 33.7462 54.9985 34.6346C55.0392 35.2449 55.0866 35.862 55.2831 36.4249C55.4796 36.981 55.8523 37.4828 56.374 37.6659C56.4147 37.5574 56.4553 37.4489 56.4892 37.3404C56.5434 37.5913 56.6179 37.8287 56.7128 38.0525L56.6111 37.8965C56.6992 38.2627 56.889 38.595 57.1532 38.8256C57.2277 38.9205 57.3023 39.0154 57.3836 39.1036C57.4852 39.1307 57.5936 39.1511 57.6953 39.1782C57.9866 39.4088 58.3728 39.4834 58.7387 39.3952C59.1046 39.307 59.4434 39.0426 59.6534 38.6899C59.5992 38.7984 59.4976 38.873 59.3892 38.8934C59.484 38.812 59.5789 38.7238 59.6738 38.6425C59.7822 38.9544 60.0464 39.1714 60.3378 39.2799C60.6291 39.3884 60.9408 39.4088 61.2525 39.4223C61.1983 39.4834 61.1373 39.5444 61.0831 39.6054C61.8149 39.5308 62.506 38.9408 62.7499 38.1813C62.9125 38.4933 63.3394 38.5611 63.6443 38.378C63.9492 38.2017 64.139 37.8355 64.1932 37.4693C64.2474 37.1031 64.1932 36.7369 64.1254 36.3842C64.0373 35.9502 63.9221 35.523 63.7189 35.1364C63.6714 34.9398 63.624 34.7499 63.5766 34.5532C63.8273 34.2277 63.5224 33.7123 63.1429 33.6716C62.7635 33.6309 62.4044 33.8751 62.0724 34.1124C61.7132 33.5157 61.2051 33.0274 60.6156 32.7222C60.5207 32.668 60.4123 32.6205 60.3446 32.5323C60.1819 32.3289 60.2497 32.017 60.3039 31.7457C60.5682 30.5522 60.6088 29.3179 60.4326 28.1312C60.392 27.8667 60.3378 27.6022 60.331 27.331C60.3242 27.0054 60.3784 26.6732 60.4462 26.3544C60.663 25.3575 61.0154 24.3335 60.8392 23.3434C60.724 22.6856 60.3784 22.1024 60.2836 21.4379C60.1548 20.5427 60.4801 19.6272 60.5817 18.7185C60.7172 17.4843 60.4259 16.2568 60.1413 15.0633C60.6562 15.3481 61.1847 15.6397 61.7675 15.7346C62.3434 15.8296 62.9939 15.6872 63.4072 15.226C63.5224 15.0972 63.6172 14.948 63.746 14.8327C63.834 14.7581 63.9357 14.7038 64.0102 14.6157C64.1051 14.5072 64.1525 14.3648 64.1932 14.2291C64.5048 13.1034 64.3693 11.8488 63.8205 10.8452C63.9357 10.2484 63.3462 9.77372 62.7974 9.67199C61.9504 9.50924 61.0357 9.85509 60.4462 10.5468C60.3039 10.6553 60.1548 10.7638 60.0126 10.8791C60.3649 10.3976 60.5749 9.79406 60.602 9.18373C60.6088 8.98706 60.5614 8.73615 60.3784 8.71581C60.4936 8.34961 60.6088 7.97662 60.6291 7.59686C60.6495 7.21032 60.5614 6.81021 60.3107 6.53895C60.06 6.26769 59.6331 6.18632 59.3485 6.4101C59.2401 6.49826 59.1114 6.62711 58.9894 6.56608C58.9352 6.53895 58.9081 6.47792 58.8742 6.42367C58.5964 5.92184 58.034 5.4946 57.5394 5.74552C57.4242 5.80655 57.3226 5.89471 57.2074 5.94896C56.9296 6.07781 56.6111 5.98287 56.3198 6.03034C55.9742 6.09137 55.6626 6.36942 55.5338 6.72883C55.4051 7.08825 55.4728 7.52227 55.6964 7.81387C55.4864 8.01053 55.4457 8.34282 55.4254 8.64121C55.3644 9.39395 55.3034 10.1399 55.2425 10.8927C55.2221 10.9401 55.2086 10.9876 55.1883 11.0351C55.0798 10.5468 54.4971 10.3705 54.0703 10.5536C53.6434 10.7367 53.3385 11.1707 53.0607 11.5776C53.1013 11.3945 53.0132 11.2046 52.8777 11.0961C52.7422 10.9876 52.5728 10.9537 52.4034 10.9537C52.3086 10.9537 52.2069 10.9673 52.1392 11.0419C52.085 11.1029 52.0714 11.1978 52.0579 11.286C51.9901 11.7946 51.9224 12.3236 52.0579 12.805C52.1663 13.2119 52.4576 13.5713 52.8168 13.6663L52.8303 13.6731ZM150.909 15.7075C151.146 15.226 151.288 14.636 151.207 14.0528C151.125 13.4696 150.8 12.9135 150.353 12.7304C149.906 12.5473 149.364 12.8254 149.228 13.3747C149.045 12.8254 148.395 12.7576 148.029 13.1034C147.67 13.4493 147.528 14.0325 147.406 14.5818C147.277 14.3919 147.026 14.4122 146.884 14.5614C146.735 14.7106 146.667 14.9412 146.606 15.165C146.471 15.6465 146.342 16.1212 146.206 16.6027C146.22 16.189 146.064 15.7482 145.773 15.5108C146.105 14.3716 146.152 13.0831 145.915 11.876C145.569 11.998 145.258 12.215 145.007 12.5202C144.777 11.8828 144.14 11.5776 143.584 11.6386C143.028 11.6997 142.534 12.0455 142.06 12.3778C142.06 12.1947 142.06 12.0184 142.066 11.8353C142.127 11.6454 141.938 11.4352 141.761 11.4487C141.592 11.4623 141.457 11.6251 141.362 11.7878C140.867 12.5948 140.806 13.7612 141.219 14.6767C140.704 16.3043 140.698 18.176 141.206 19.8849C141.28 20.129 141.362 20.3799 141.348 20.6241C141.335 20.8479 141.246 21.0445 141.172 21.2412C140.684 22.4958 140.596 23.9945 140.928 25.3982C141.057 25.9543 141.253 26.4968 141.341 27.0665C141.517 28.2261 141.24 29.3586 141.172 30.5047C141.091 31.9085 141.341 33.3868 141.897 34.7228C141.314 36.0519 141.192 37.6998 141.565 39.2731C141.626 39.5376 141.707 39.8089 141.707 40.0733C141.707 40.3107 141.646 40.5345 141.612 40.7583C141.531 41.3008 141.592 41.8908 141.789 42.4333C142.324 43.0572 142.961 43.5658 143.632 43.9117C143.984 44.0948 144.384 44.2304 144.709 44.0744C144.865 43.9998 144.987 43.8642 145.156 43.8235C145.535 43.7218 145.996 44.149 146.355 43.9795C146.647 43.8438 146.714 43.3827 146.748 42.9758C146.857 41.5924 146.965 40.1886 146.803 38.7645C146.742 38.2288 146.633 37.6863 146.62 37.1505C146.599 36.4859 146.721 35.8553 146.823 35.2246C147.121 33.3597 147.284 31.3592 146.796 29.4468C146.708 29.0941 146.592 28.7415 146.572 28.3753C146.559 28.0837 146.599 27.7989 146.633 27.5208C146.85 25.7983 146.708 23.9673 146.24 22.2584C147.026 21.4311 147.439 20.1019 147.338 18.7727C148.137 19.0847 149.045 18.5896 149.35 17.6674C149.411 17.9929 149.696 18.1827 149.953 18.2709C150.577 18.4811 151.308 18.2709 151.613 17.586C151.918 16.9078 151.573 15.8092 150.942 15.7007L150.909 15.7075ZM168.81 27.0054C168.722 26.4222 168.58 25.8458 168.525 25.2558C168.322 22.9772 169.494 20.6851 168.749 18.5693C168.512 17.9047 168.085 17.2808 168.132 16.5688C168.153 16.2907 168.241 16.0398 168.315 15.7821C168.702 14.4936 168.702 12.9678 168.315 11.6183C168.221 11.5098 168.119 11.4013 168.024 11.2928C168.268 9.78728 168.512 8.16651 168.105 6.69493C168.065 6.53895 168.01 6.38298 168.01 6.22022C168.01 6.03712 168.065 5.8608 168.112 5.68449C168.512 4.30106 168.607 2.73454 168.37 1.26975C168.322 0.971361 168.254 0.659413 168.071 0.483094C167.943 0.361028 167.787 0.320339 167.631 0.286432C167.319 0.218617 167.001 0.144021 166.689 0.0762058C166.161 -0.0390792 165.517 -0.100113 165.199 0.476313C165.09 0.672976 164.968 0.964579 164.792 0.883201C164.711 0.849294 164.663 0.74079 164.616 0.652631C164.331 0.164365 163.681 0.198272 163.423 0.706883C163.2 1.1409 163.274 1.73089 163.118 2.21237C163.051 2.41581 162.942 2.59891 162.861 2.79558C162.583 3.43982 162.57 4.24003 162.678 4.97243C162.786 5.71161 163.01 6.4101 163.179 7.12894C163.227 7.3256 163.274 7.54261 163.24 7.74605C163.193 8.058 162.983 8.27501 162.908 8.57339C162.847 8.79718 162.868 9.0481 162.895 9.28545C162.976 10.0043 163.098 10.7163 163.268 11.408C163.308 11.5844 163.356 11.7675 163.362 11.9506C163.362 12.1879 163.308 12.4049 163.261 12.6287C163.125 13.3001 163.125 14.0257 163.261 14.7174C163.057 14.1613 162.807 13.6459 162.407 13.3543C161.906 12.9881 161.309 13.0763 160.76 12.8932C159.927 12.6152 159.256 11.7403 158.443 11.3877C157.285 10.8859 155.929 11.6115 155.421 12.9746C155.286 13.3408 155.204 13.7477 155.021 14.0732C154.805 14.4597 154.466 14.6971 154.202 15.0226C153.653 15.6939 153.429 16.7112 153.436 17.708C153.436 18.7049 153.646 19.695 153.849 20.6715C153.321 20.7529 153.09 21.5057 152.996 22.1703C152.664 24.5506 152.968 27.1139 153.856 29.4196C153.449 29.3111 153.212 29.9079 153.138 30.4097C152.819 32.5527 153.029 34.8787 153.727 37.0488C153.463 37.0895 153.368 37.476 153.314 37.8016C153.138 38.8934 152.962 40.0394 153.253 41.1787C153.463 42.0061 153.903 42.7385 154.351 43.437C154.818 44.1694 155.326 44.8882 155.936 45.4239C156.085 45.5528 156.255 45.6748 156.424 45.6748C156.593 45.6748 156.736 45.4782 156.688 45.2612C156.885 45.9597 157.346 46.5768 157.881 46.848C158.409 47.1193 158.999 47.0447 159.392 46.6446C159.507 46.5293 159.615 46.3869 159.771 46.4005C159.88 46.4072 159.981 46.4954 160.083 46.5768C160.442 46.8684 160.842 47.1329 161.221 47.0922C161.601 47.0583 161.933 46.6242 161.845 46.0953C162.129 46.4479 162.57 46.353 162.786 46.0207C163.003 45.6884 163.051 45.1934 163.071 44.7254C163.057 45.5392 163.051 46.3462 163.037 47.1532C163.322 47.377 163.606 47.6008 163.898 47.8314L164.081 47.7703C164.65 48.245 165.395 47.9873 165.592 47.2414C166.059 47.8246 166.621 48.2722 167.197 48.5027C167.367 48.5705 167.557 48.6248 167.692 48.5231C167.794 48.4552 167.855 48.3196 167.916 48.184C168.559 46.6582 168.756 44.6847 168.464 42.752C168.343 41.9722 168.146 41.1652 168.221 40.4192C168.275 39.9242 168.444 39.4901 168.573 39.029C168.891 37.8897 168.925 36.5538 168.668 35.2721C168.492 34.3973 168.187 33.5292 168.214 32.6612C168.234 31.9627 168.471 31.3524 168.634 30.7149C168.925 29.5621 169 28.2668 168.81 26.9987V27.0054ZM163.383 24.3878C163.403 24.5302 163.423 24.6794 163.417 24.8218C163.41 24.9913 163.362 25.1473 163.315 25.2965C162.956 26.5646 162.854 27.9752 163.017 29.379C163.037 29.5756 163.064 29.7723 163.071 29.9689C163.071 30.186 163.051 30.403 163.024 30.6132C162.847 32.3221 162.963 34.126 163.349 35.8688C163.396 36.0858 163.45 36.3096 163.45 36.5266C163.45 36.8182 163.356 37.0759 163.288 37.3336C163.051 38.1949 163.024 39.1985 163.22 40.1615C163.254 40.3243 163.295 40.4938 163.274 40.6498C163.254 40.799 163.179 40.921 163.105 41.0295C162.854 41.4093 162.61 41.7823 162.36 42.1553C162.265 41.7619 161.939 41.5381 161.648 41.3822C161.404 41.2465 161.153 41.1109 160.91 40.9753C160.72 40.8736 160.53 40.7651 160.34 40.7854C160.042 40.8125 159.805 41.1313 159.5 41.0634C159.493 40.0801 159.48 39.0697 159.202 38.1067C158.945 37.2048 158.45 36.3571 158.436 35.4416C158.436 35.0957 158.497 34.7702 158.558 34.4379C158.917 32.4713 158.978 30.3623 158.755 28.2804C158.694 27.7378 158.619 27.1885 158.687 26.6664C158.735 26.3273 158.843 26.0086 158.924 25.6898C159.263 24.3878 159.222 22.8755 158.802 21.5328C158.64 21.0106 158.423 20.4613 158.531 19.9459C158.572 19.7628 158.646 19.6001 158.721 19.4441C158.972 18.9219 159.216 18.3998 159.466 17.8708C159.656 18.3591 160.117 18.5218 160.523 18.6303C161.113 18.7863 161.709 18.9423 162.299 19.0982C162.441 19.1389 162.59 19.1796 162.705 19.3085C162.8 19.4238 162.854 19.5865 162.936 19.7221C163.051 19.9188 163.22 20.0544 163.403 20.1087C163.41 20.068 163.417 20.0205 163.423 19.9798L163.478 20.129C163.478 20.129 163.43 20.1155 163.41 20.1087C163.193 21.4989 163.179 22.9569 163.383 24.3946V24.3878ZM136.971 23.1197C136.869 22.8891 136.754 22.645 136.781 22.394C136.802 22.2177 136.883 22.0753 136.957 21.9261C137.594 20.6919 137.594 18.983 136.957 17.6538C136.869 17.4775 136.775 17.2944 136.754 17.0977C136.741 16.935 136.781 16.779 136.829 16.623C137.228 15.165 137.466 13.4086 136.686 12.1133C136.497 12.3642 136.307 12.6084 136.117 12.8593C136.104 12.3371 135.758 11.8421 135.331 11.7132C134.898 11.5912 134.423 11.8488 134.234 12.3032C134.267 11.7878 133.793 11.3335 133.353 11.3674C132.912 11.4013 132.553 11.8149 132.404 12.2896C132.248 12.7643 132.269 13.3001 132.316 13.8155C132.072 13.8019 131.821 13.7951 131.578 13.7816C131.449 13.2865 131.578 12.7508 131.476 12.249C131.374 11.7471 130.832 11.2724 130.514 11.6183C130.209 11.0758 129.782 10.5875 129.24 10.4519C128.705 10.3162 128.068 10.6689 127.986 11.286C127.078 10.6078 125.778 10.7706 125.059 11.6454C124.544 10.8452 123.386 10.9537 122.789 11.6318C122.193 12.31 122.037 13.334 122.003 14.3037C121.983 14.9683 122.01 15.6329 122.085 16.2907C122.098 16.3789 122.119 16.4874 122.193 16.5281C121.909 17.057 121.888 17.7284 121.882 18.3658C121.868 20.9292 121.936 23.4926 122.003 26.0628C122.051 27.7446 122.092 29.4264 122.139 31.1082C122.193 33.0749 122.247 35.0483 122.613 37.0081C122.708 37.4964 122.823 37.9914 123.06 38.4322C123.392 39.0426 123.955 39.5037 124.558 39.6461C124.734 39.6868 124.903 39.7071 125.08 39.7614C125.283 39.8292 125.473 39.9445 125.662 40.0598C125.994 40.2632 126.326 40.4667 126.658 40.6769C127.641 41.2872 128.786 41.9247 129.735 41.4975C129.999 41.3754 130.229 41.1787 130.419 40.9346C131.259 41.3347 132.194 40.5752 132.187 39.5851C132.248 40.2836 132.54 40.9888 132.987 41.5178C133.17 41.728 133.542 41.8569 133.563 41.5788C133.807 42.1281 134.356 42.4536 134.857 42.5147C135.365 42.5757 135.839 42.4197 136.307 42.257C136.639 42.1417 136.991 42.0196 137.208 41.7145C137.432 41.4093 137.466 40.8668 137.181 40.548C137.872 39.4427 137.737 37.6252 136.869 36.4588C137.615 35.4552 137.852 33.9158 137.486 32.5188C137.425 32.2814 137.344 32.0373 137.337 31.7932C137.337 31.5423 137.418 31.3117 137.486 31.0811C138.272 28.6127 138.069 25.6017 136.951 23.1264L136.971 23.1197ZM132.424 33.2919C132.099 34.065 132.526 35.1568 132.133 35.8756C131.971 36.174 131.672 36.4114 131.713 36.7843C130.88 35.6111 129.281 35.3331 128.359 36.1808C128.163 34.6617 127.959 33.1427 127.763 31.6236C127.702 31.1761 127.648 30.7217 127.742 30.3012C127.797 30.0639 127.898 29.8537 127.98 29.6299C128.312 28.7279 128.346 27.6836 128.203 26.6732C128.061 25.6627 127.756 24.6862 127.424 23.73C127.37 23.574 127.316 23.4113 127.309 23.2417C127.309 23.0383 127.383 22.862 127.451 22.6789C128.108 20.9157 127.986 18.8541 127.851 16.8807C127.851 16.7858 127.837 16.6773 127.878 16.5959C127.986 16.3517 128.312 16.4602 128.556 16.5281C129.104 16.684 129.707 16.3924 129.965 15.8364C130.473 16.6569 131.367 17.1452 132.214 17.0638L132.303 16.9621C132.208 18.0471 132.282 19.1661 132.526 20.2511C132.567 20.441 132.614 20.6376 132.553 20.814C132.513 20.9292 132.431 21.0106 132.357 21.0988C131.672 21.8922 131.611 23.1603 131.625 24.32C131.632 25.2151 131.666 26.1171 131.862 26.9987C131.93 27.2903 132.011 27.5819 132.038 27.8803C132.072 28.2804 132.011 28.6737 131.984 29.0738C131.923 30.0029 132.092 30.9794 132.465 31.8542C132.574 32.1119 132.702 32.3764 132.675 32.6476C132.655 32.885 132.513 33.0681 132.424 33.2851V33.2919ZM103.696 19.5594C103.723 19.756 103.662 19.9459 103.607 20.1358C103.262 21.3158 103.208 22.5907 103.445 23.8182C103.506 24.1504 103.594 24.4827 103.58 24.8218C103.574 25.0863 103.499 25.344 103.445 25.6017C103.221 26.6257 103.228 27.7175 103.465 28.7551C103.54 29.0806 103.635 29.4061 103.621 29.7384C103.607 29.969 103.546 30.186 103.492 30.4097C103.174 31.705 103.262 33.1223 103.736 34.3973C103.736 34.2887 103.75 34.1735 103.75 34.065C103.858 34.8313 104.061 35.5908 104.346 36.3164C104.434 36.5402 104.542 36.7708 104.732 36.9064C104.922 37.0352 105.22 37.0081 105.295 36.7911C105.66 37.4896 106.047 38.2084 106.636 38.6967C107.226 39.185 108.086 39.3884 108.655 38.9476C108.872 38.7781 109.055 38.5204 109.326 38.5C109.455 38.4933 109.59 38.5407 109.712 38.595C110.41 38.9069 111.04 39.4223 111.759 39.6529C112.477 39.8835 113.371 39.7004 113.622 38.9612C115.194 38.9883 116.956 38.9408 117.924 37.6591C118.358 37.0827 118.568 36.33 118.69 35.5704C118.934 34.0311 118.846 32.4238 118.758 30.837C118.663 29.128 118.568 27.4191 118.473 25.717C118.385 24.1776 118.304 22.6314 118.548 21.1327C118.731 19.9934 119.097 18.7592 118.609 17.7013C118.534 17.5317 118.433 17.369 118.399 17.1859C118.358 16.9756 118.399 16.7722 118.433 16.562C118.717 14.5411 117.294 12.3575 115.472 12.0319V12.3575C115.038 11.7539 114.598 11.1571 114.164 10.5604C114.028 10.3773 113.886 10.1806 113.69 10.0857C113.222 9.85509 112.734 10.2416 112.307 10.54C111.887 10.8316 111.21 10.9876 110.959 10.4993C110.912 10.4044 110.878 10.2891 110.796 10.2281C110.735 10.1874 110.661 10.1806 110.593 10.1806C109.475 10.1535 108.276 10.1535 107.354 10.8316C107.219 10.9333 107.083 11.0486 106.921 11.0961C106.704 11.1639 106.467 11.0893 106.243 11.0622C105.45 10.9605 104.637 11.4352 104.285 12.1947C103.872 13.0831 104.089 14.1817 103.811 15.1311C103.702 15.5108 103.519 15.8635 103.391 16.2365C103.079 17.152 103.133 18.2167 103.54 19.105C103.607 19.2474 103.682 19.3966 103.702 19.5526L103.696 19.5594ZM108.323 17.7487C108.52 17.0299 108.628 16.6501 108.554 15.8974C108.554 15.9788 108.52 15.6736 108.527 15.7618L108.499 15.7278C109.164 16.0059 109.963 15.816 110.437 15.2599C110.851 15.7075 111.359 16.0873 111.921 16.1958C112.49 16.3043 113.121 16.094 113.419 15.5719C113.344 17.2062 113.276 18.8948 113.771 20.4681C113.839 20.6851 113.92 20.9089 113.9 21.1327C113.886 21.2819 113.825 21.4243 113.771 21.5667C113.324 22.7738 113.446 24.164 113.629 25.4796C113.744 26.3544 113.886 27.2292 114.042 28.104C114.062 28.2329 114.089 28.3617 114.083 28.4906C114.069 28.633 114.022 28.7618 113.974 28.8907C113.466 30.3623 113.764 32.0509 114.022 33.6513C114.035 33.7394 114.049 33.8276 114.022 33.9022C113.988 34.0243 113.879 34.0921 113.778 34.1531C113.29 34.4718 112.904 34.9669 112.68 35.5433C111.61 34.8991 110.397 34.5939 109.218 34.6753C109.238 33.8954 109.048 33.0952 108.682 32.3967C108.567 32.1729 108.425 31.9627 108.371 31.7186C108.323 31.5083 108.337 31.2913 108.357 31.0811C108.533 29.1959 109.177 27.2903 108.682 25.4389C108.547 24.9371 108.337 24.4353 108.411 23.9334C108.445 23.6893 108.547 23.4723 108.635 23.2485C109.184 21.8041 109.089 20.0544 108.384 18.6371C108.33 18.5286 108.269 18.4201 108.249 18.298C108.215 18.1149 108.276 17.9318 108.323 17.7555V17.7487ZM89.5953 37.5303C89.724 37.1641 89.7443 36.764 89.7443 36.3639L89.9747 36.2418C89.9612 36.8861 90.2999 37.5303 90.8285 37.8558C91.357 38.1813 92.0481 38.1745 92.5563 37.8355C93.0509 38.3983 93.62 39.0087 94.3383 39.0561C94.738 39.0833 95.1175 38.9341 95.4834 38.7781C96.2219 38.4797 96.9605 38.1745 97.6922 37.8761C97.9971 37.7541 98.3156 37.6252 98.5663 37.3947C99.0677 36.9403 99.2168 36.174 99.2981 35.4619C99.4065 34.4854 99.4472 33.5021 99.4878 32.5188C99.5149 31.8745 99.542 31.2303 99.5691 30.5861C99.6098 29.596 99.6504 28.5923 99.4675 27.6158C99.4065 27.297 99.3252 26.9783 99.3116 26.6596C99.2981 26.4155 99.3252 26.1713 99.3591 25.9272C99.5149 24.6591 99.7385 23.3299 99.3387 22.1024C99.2371 21.7837 99.088 21.4718 99.0542 21.1395C99.0271 20.8682 99.0813 20.5902 99.1355 20.3257C99.4268 18.827 99.6911 17.2672 99.3523 15.7618C99.2642 15.3617 98.9119 14.8734 98.5934 15.0972C98.4647 14.2088 98.3224 13.2933 97.8752 12.527C97.428 11.7675 96.581 11.191 95.7747 11.3877C95.6392 11.4216 95.5037 11.4691 95.3682 11.442C95.2598 11.4216 95.1717 11.3538 95.0768 11.2928C94.2299 10.7163 92.9967 10.6146 92.3394 11.408C91.6077 11.3741 90.8691 11.6183 90.2796 12.0726C90.4151 11.4148 90.4693 10.7299 90.4287 10.0585C90.4151 9.80762 90.3067 9.47533 90.0696 9.48211C90.2457 8.53949 90.239 7.56295 90.0492 6.62711C90.0086 6.42367 89.8528 6.15919 89.6766 6.26091C89.8053 5.63023 90.1034 5.04703 90.2254 4.40957C90.4287 3.38557 90.178 2.33444 89.9273 1.324C89.8934 1.18837 89.8595 1.05274 89.785 0.937453C89.6292 0.700102 89.3378 0.618724 89.0668 0.571253C88.8025 0.530565 88.5383 0.503439 88.274 0.496657C87.9623 0.489876 87.549 0.611942 87.5558 0.937453C86.6953 0.69332 85.7873 0.64585 84.9065 0.801824L84.8455 0.991705C84.6626 2.49719 84.7642 4.03659 85.1436 5.50139C85.1843 5.65736 85.2249 5.81333 85.2317 5.97609C85.2317 6.19988 85.1504 6.41689 85.0826 6.63389C84.8319 7.43411 84.7777 8.28179 84.7235 9.12269C84.6761 9.87544 84.6287 10.635 84.7235 11.3809C84.771 11.8014 84.8658 12.215 84.92 12.6355C85.2724 15.2396 84.317 17.9861 85.1165 20.4749L85.2453 20.7394C84.8049 22.116 84.7845 23.6486 85.1843 25.0388C85.2114 25.127 85.2385 25.2151 85.2114 25.3033C85.1911 25.3711 85.1504 25.4254 85.1098 25.4796C84.7642 25.9408 84.71 26.5782 84.6761 27.1682C84.6219 28.0023 84.5745 28.8432 84.6897 29.6706C84.7574 30.152 84.8794 30.62 84.9336 31.0947C85.0352 32.0102 84.8794 32.9392 84.8252 33.8615C84.771 34.7838 84.8252 35.7603 85.2995 36.5402C85.3469 36.6216 85.4011 36.703 85.4079 36.7979C85.4079 36.8793 85.374 36.9606 85.3469 37.0352C85.2249 37.3472 85.1978 37.7066 85.2792 38.0321C85.3063 38.1474 85.3537 38.2695 85.4553 38.3169C85.5299 38.3576 85.6112 38.3509 85.6925 38.3373C86.2684 38.283 86.885 38.2152 87.3457 37.8422C87.8133 38.1542 88.3553 38.4865 88.877 38.3169C89.2294 38.2017 89.4936 37.8694 89.6224 37.5032L89.5953 37.5303ZM89.7172 22.055C89.7511 21.9736 89.8121 21.9126 89.8663 21.8447C90.1712 21.465 90.2525 20.9292 90.2051 20.4342C90.1509 19.9324 89.9815 19.4577 89.8189 18.9897C89.785 18.8948 89.7511 18.7931 89.7443 18.6914C89.7308 18.5286 89.785 18.3658 89.8324 18.2099C90.1915 17.0638 90.3203 15.8296 90.1983 14.6225L90.4829 15.1175C91.1537 14.9819 91.8042 14.7174 92.3869 14.3376C92.4207 14.6225 92.4682 14.9209 92.6376 15.1446C93.0509 15.6939 93.9249 15.4634 94.4535 15.8974C94.1892 17.1248 94.2502 18.4269 94.6364 19.6272C94.6974 19.8103 94.7651 20.0002 94.7584 20.1901C94.7584 20.3325 94.7177 20.4749 94.677 20.6173C94.3247 21.9126 94.2502 23.296 94.467 24.6387L94.7584 24.4217C94.5619 25.1473 94.5619 25.9408 94.7584 26.6732L94.6974 26.5036C94.8193 27.1207 94.4264 27.7107 94.3857 28.3346C94.3722 28.5245 94.3857 28.7212 94.4196 28.911C94.5144 29.6299 94.6838 30.3351 94.8464 31.0336V31.271C94.5009 31.9898 94.406 32.8443 94.589 33.6445C93.5794 33.3529 92.5021 33.3665 91.5128 33.692C91.4044 33.2647 91.2824 32.8172 90.9707 32.5256C90.8081 32.3696 90.6116 32.2747 90.4422 32.1255C90.0696 31.7999 89.9002 31.271 89.8663 30.7624C89.8324 30.2538 89.9137 29.7452 89.9476 29.2365C90.0018 28.4635 89.9476 27.6836 89.7985 26.9173C89.7714 26.7749 89.7376 26.6392 89.7443 26.4968C89.7443 26.3409 89.7985 26.1917 89.8392 26.0493C90.0086 25.4118 90.0018 24.7404 89.9408 24.0758C89.8934 23.5605 89.8256 23.0518 89.724 22.55C89.6901 22.3873 89.6563 22.2042 89.724 22.055H89.7172ZM70.6098 38.0321C70.8401 37.9507 71.084 37.8626 71.3144 37.9101C71.4635 37.944 71.599 38.0253 71.7413 38.0864C72.385 38.3441 73.11 37.9711 73.8079 37.9168C74.5464 37.8626 75.2511 38.1745 75.9897 38.2356C76.7214 38.2966 77.6091 37.9711 77.792 37.2048C78.1172 37.6185 78.7203 37.7337 79.1742 37.4828C79.2284 37.5303 79.2759 37.5778 79.3301 37.6252C79.4995 37.4489 79.6282 37.2251 79.7028 36.9878C80.0686 36.8454 80.4413 36.6826 80.7055 36.3774C81.0376 35.9977 81.1527 35.4552 81.1731 34.9398C81.1934 34.4244 81.1324 33.9022 81.1731 33.3936C81.2544 32.4442 81.6745 31.4134 81.2341 30.5861C81.0511 30.247 80.753 30.0029 80.4616 29.7723C80.3397 29.6773 80.2109 29.5756 80.0686 29.5214C79.9196 29.4671 79.7569 29.4671 79.5943 29.4807C79.0455 29.5078 78.4967 29.6095 77.9682 29.7858L78.2392 29.5892C77.6971 29.657 77.1619 29.8265 76.674 30.0978C76.5995 30.1385 76.5317 30.1792 76.4775 30.247C76.3691 30.3758 76.3556 30.5657 76.3556 30.742C76.342 31.5016 76.3691 32.2679 76.4369 33.0206C76.0574 32.7358 75.5154 32.8036 75.1224 33.0884C74.7294 33.3665 74.4719 33.8208 74.2957 34.2887C73.4352 33.6174 72.2156 33.5021 71.2331 34.0175C71.3212 32.885 71.1789 31.7389 70.8266 30.6878C70.7927 30.5793 70.752 30.464 70.7724 30.3487C70.7927 30.2606 70.8469 30.1792 70.9011 30.1046C71.2805 29.5349 71.4093 28.8161 71.3754 28.1312C71.3483 27.4462 71.1721 26.7817 71.0027 26.1238C71.9378 26.7274 73.2048 26.6935 74.1399 26.0493C74.4516 26.7613 75.3324 26.9308 76.071 26.8902C76.4504 26.8698 76.8298 26.8223 77.1754 26.6392C77.5142 26.4629 77.8055 26.1306 77.8665 25.7305C78.3612 25.8526 78.7271 26.273 79.1675 26.5307C79.6079 26.7884 80.2855 26.7952 80.5091 26.3137C80.7056 26.2459 80.902 26.1781 81.0985 26.1035C81.3628 25.8119 81.4848 25.405 81.5593 25.0049C81.7626 23.8656 81.6067 22.6653 81.1392 21.6277C81.0714 21.4785 80.9969 21.3361 80.9698 21.1734C80.9291 20.9225 81.0037 20.6715 81.0714 20.4274C81.3763 19.261 81.3899 18.0064 81.0985 16.8332C81.0376 16.5823 80.963 16.3314 80.9359 16.0669C80.902 15.66 80.9969 15.2464 81.024 14.8395C81.0918 13.8562 80.7462 12.8525 80.0957 12.1608C79.8044 11.8488 79.4317 11.5844 79.0184 11.5572C78.9032 11.5505 78.7813 11.5572 78.6661 11.5369C78.517 11.503 78.3883 11.4216 78.2663 11.3335C77.9004 11.0758 77.5413 10.7842 77.1212 10.6282C76.7079 10.4722 76.2065 10.4654 75.8541 10.757C75.7593 10.8384 75.6712 10.9333 75.556 10.9808C75.3934 11.0486 75.2105 10.9944 75.0411 10.9469C73.9434 10.635 72.7509 10.7163 71.6939 11.1775L71.8091 11.4759C71.6871 11.4284 71.5651 11.3945 71.4364 11.3674C70.4471 11.1571 69.3901 11.225 68.4551 11.659C68.2992 11.7336 68.1366 11.8217 68.0282 11.9641C67.913 12.1201 67.8588 12.3168 67.8182 12.5066C67.764 12.7304 67.7098 12.9542 67.6555 13.178C67.6284 13.2933 67.5878 13.4221 67.4929 13.4764C67.4116 13.5239 67.31 13.5035 67.2219 13.5103C66.8696 13.5442 66.6798 13.9782 66.5918 14.3512C66.1649 16.1212 66.2394 18.02 66.795 19.7221C66.5985 19.6475 66.4562 19.9391 66.4291 20.1629C66.2055 21.7566 66.3682 23.4045 66.8967 24.8828L66.7544 24.8693C66.1581 26.3409 66.3682 28.0227 66.7747 29.5349C66.8086 29.6638 66.8492 29.7926 66.8492 29.935C66.8492 30.0978 66.8018 30.2538 66.7544 30.4165C66.192 32.4306 66.4359 34.6617 67.4116 36.4114C67.4726 36.5266 67.5675 36.6487 67.6894 36.6351C67.5742 37.3336 68.0756 37.9914 68.6855 38.2017C69.2953 38.4119 69.9796 38.2763 70.6098 38.0592V38.0321ZM71.1992 22.2516C71.3212 20.6173 71.3822 18.9762 71.3619 17.3418C71.3619 17.1384 71.3551 16.9282 71.2873 16.7383C71.2534 16.6433 71.1992 16.5416 71.2128 16.4399C71.2331 16.3111 71.3483 16.2297 71.4432 16.1551C71.8226 15.8635 72.1072 15.4295 72.2291 14.9548C72.7983 15.443 73.6249 15.4023 74.3499 15.2464C74.7362 15.165 75.1969 14.9751 75.2511 14.5614C75.5357 15.2192 75.8812 15.8499 76.2742 16.4331C76.2065 16.996 76.1997 17.5588 76.1862 18.1217C76.1862 18.4269 76.1726 18.732 76.1658 19.0372C76.1387 20.1697 76.1184 21.3022 76.1658 22.4279C75.3324 22.0482 74.3432 22.0889 73.5233 22.5229C73.3133 22.0143 72.7305 21.7905 72.2156 21.8583C71.8565 21.9058 71.5177 22.0617 71.1925 22.2448C71.1789 22.4483 71.1654 22.645 71.145 22.8484C71.0231 22.7331 70.8943 22.6178 70.7724 22.5025C70.9079 22.4144 71.0502 22.3262 71.1925 22.2448L71.1992 22.2516ZM50.2081 39.4834C50.4114 39.2731 50.3233 38.4526 50.3233 38.4526C50.5672 37.8422 50.9467 37.2319 50.8721 36.6012C50.9263 36.8521 50.9873 37.1031 51.0415 37.354C51.0212 36.9064 50.9331 36.4724 50.7705 36.0723L50.7502 36.1469C50.6079 35.3873 50.6621 34.5871 50.7231 33.7937C50.7773 33.102 50.8315 32.4103 50.8857 31.7186C50.8992 31.5219 50.9196 31.3252 50.9331 31.1286C51.0483 29.6909 51.1567 28.2397 50.9331 26.8495C50.8925 26.5986 50.8382 26.3476 50.8315 26.0832C50.8179 25.8594 50.8382 25.6356 50.8586 25.405C51.0009 23.5944 51.0957 21.7498 50.6824 20.0205C50.635 19.8171 50.574 19.6069 50.5672 19.3898C50.5537 19.0236 50.6892 18.671 50.7908 18.3116C51.028 17.4503 51.0618 16.5009 50.7502 15.6939C50.6824 15.5244 50.6011 15.3549 50.5808 15.165C50.5672 15.009 50.5943 14.853 50.6214 14.7038C50.7773 13.7883 50.7705 12.8457 50.6011 11.9438C50.5604 11.7268 50.5062 11.503 50.3572 11.3538C50.2081 11.2114 49.9439 11.1978 49.8287 11.3877C49.5915 10.8384 49.0833 10.4519 48.5345 10.4044C47.9857 10.3569 47.4165 10.6553 47.0777 11.1639C46.9897 10.8452 46.617 10.7163 46.346 10.852C46.0681 10.9876 45.8988 11.3199 45.8446 11.6522C45.7903 11.9845 45.8446 12.3235 45.8852 12.6558C45.9055 12.9135 45.9326 13.178 45.953 13.4357C45.7903 12.9203 45.621 12.3846 45.2618 12.0116C44.8824 11.6251 44.3607 11.4826 43.8525 11.3877C43.141 11.2589 42.416 11.1978 41.6911 11.2046C41.5488 11.2046 41.3997 11.2114 41.271 11.2928C41.1829 11.347 41.1083 11.4352 41.0135 11.4759C40.7831 11.5911 40.546 11.4284 40.3156 11.3402C39.6719 11.0893 38.9537 11.4081 38.3235 11.7675C38.1677 11.8556 38.0051 11.9506 37.8899 12.1065C37.8086 12.215 37.7544 12.3507 37.6731 12.466C37.5917 12.588 37.4901 12.683 37.3885 12.7847C36.6025 13.6256 36.2637 14.9887 36.5483 16.1415L36.6228 16.1686C36.5076 16.6094 36.3179 17.0367 36.1824 17.4707C35.9995 18.0403 35.9182 18.7185 36.2095 19.1864L36.345 19.2339C36.0672 19.5729 35.8978 20.0205 35.8165 20.4681C35.7352 20.9225 35.7352 21.3768 35.742 21.8312C35.7488 22.1431 35.803 22.5161 36.0537 22.5975C36.1621 22.5432 36.2705 22.489 36.3789 22.4347C35.559 23.3095 35.3693 24.8896 35.9656 25.8729C36.0198 25.9543 36.074 26.0425 36.0808 26.151C36.0808 26.2595 36.0333 26.3612 35.9859 26.4629C35.3422 27.7853 35.3422 29.4603 35.9859 30.6471C36.0875 30.7827 36.196 30.9184 36.2976 31.0472C35.9046 32.4578 35.8572 33.97 36.1553 35.3263C36.196 35.5026 36.2434 35.6857 36.2366 35.8756C36.2366 36.0791 36.1756 36.2757 36.1282 36.4724C35.7352 38.1271 36.1824 39.9174 37.2394 40.8803C37.3275 40.9617 37.4224 41.0363 37.5375 41.077C37.6731 41.1245 37.8289 41.0973 37.978 41.0973C38.3777 41.0973 38.7504 41.2398 39.1231 41.355C39.4957 41.4703 39.8955 41.5585 40.2953 41.4364C40.695 41.3144 41.0812 40.9414 41.1422 40.4735C41.4946 40.5345 41.8401 40.5955 42.1925 40.6633C42.5583 40.7312 42.9513 40.7922 43.324 40.643C43.6967 40.4938 44.0287 40.0462 43.9609 39.6325C44.381 39.7682 44.8756 39.4698 45.1467 39.029C45.4109 38.5882 45.4787 38.0457 45.4516 37.5439C45.4651 37.8626 45.4719 38.1813 45.4854 38.5C45.4177 38.7781 45.3838 39.0697 45.3906 39.3477C45.3906 39.6325 45.4719 39.9648 45.7158 40.0259C45.8513 39.9581 45.9936 39.897 46.1291 39.8292C46.2511 40.1412 46.5357 40.3378 46.8338 40.4192C47.1319 40.4938 47.4572 40.4735 47.7756 40.4328C47.9315 40.4124 48.0941 40.3853 48.216 40.27C48.2703 40.2158 48.3177 40.1412 48.3787 40.1005C48.4329 40.0666 48.4871 40.053 48.5481 40.0394C48.8462 39.9852 49.1375 39.9852 49.4357 39.9242C49.727 39.8563 49.9913 39.6665 50.2149 39.4291L50.2081 39.4834ZM36.6432 16.1483C36.6364 16.033 36.6567 15.9109 36.7041 15.8092C36.6906 15.9245 36.6702 16.0398 36.6432 16.1483ZM45.9123 32.0373C45.7294 32.6069 45.709 33.2308 45.8581 33.7801H45.9123C45.7023 33.8547 45.5261 34.126 45.4651 34.3905C45.3838 34.7228 45.3974 35.0822 45.2618 35.3941C44.6724 35.2246 44.0558 35.1568 43.4324 35.1907C42.8294 35.2246 42.1382 35.4145 41.8062 36.0316C41.7385 35.5569 41.6097 35.1025 41.4268 34.6821C41.3184 34.4379 41.1829 34.2006 41.1151 33.9225C41.0067 33.475 41.088 32.9799 41.1151 32.4984C41.1558 31.8203 41.088 31.1421 40.9118 30.5115C40.8712 30.3691 40.8238 30.2266 40.8305 30.0775C40.8305 29.9418 40.878 29.813 40.9118 29.6773C41.1964 28.6805 41.21 27.6022 40.9389 26.6528C40.9118 26.5443 40.878 26.4426 40.8712 26.3273C40.8576 26.1306 40.9322 25.934 40.9932 25.7441C41.271 24.8422 41.2913 23.8588 41.0406 22.984C40.9525 22.6653 40.8238 22.3601 40.8102 22.0211C40.8034 21.8244 40.8238 21.6277 40.8509 21.4379C40.9999 20.1901 41.0067 18.9287 40.8847 17.6945C40.878 17.708 40.8712 17.7216 40.8576 17.7419L40.8712 17.6063C40.8712 17.6063 40.8712 17.6674 40.878 17.6945C41.1422 17.2537 41.3523 16.779 41.5013 16.2839C41.7995 16.1415 42.1247 16.2839 42.4364 16.3721C42.7413 16.4535 43.141 16.4399 43.3104 16.1144C43.3782 15.9855 43.4256 15.7889 43.5611 15.7821C44.1439 16.3857 44.9027 16.7654 45.7023 16.8468C45.5261 18.454 45.5939 20.0816 45.8988 21.6345C45.9665 21.9668 46.041 22.3059 46.0207 22.6585C46.0072 22.9162 45.9326 23.1671 45.8717 23.4248C45.6481 24.3878 45.5871 25.3915 45.7023 26.3544C45.7497 26.7681 45.831 27.1818 45.7971 27.609C45.77 27.9074 45.6887 28.2058 45.6413 28.5042C45.5396 29.1077 45.56 29.7248 45.709 30.2945L45.8242 30.2063C45.8242 30.1656 45.831 30.1249 45.8581 30.091C45.892 30.0503 45.9597 30.0435 45.9733 30.091L45.831 30.1995C45.831 30.1995 45.831 30.2266 45.831 30.2334C45.831 30.5522 45.831 30.8641 45.831 31.1828C45.831 31.5151 45.8446 31.8881 46.0546 32.0983L45.9259 32.0373H45.9123ZM60.724 44.305H54.8088C50.8925 44.305 48.9343 45.9597 48.9343 49.269V65.036C48.9343 68.3453 50.8925 70 54.8088 70H60.724C64.6404 70 66.5985 68.3453 66.5985 65.036V49.269C66.5985 45.9597 64.6404 44.305 60.724 44.305ZM59.606 64.1137C59.606 64.7037 59.274 64.9953 58.6032 64.9953H56.9228C56.2588 64.9953 55.92 64.7037 55.92 64.1137V50.1913C55.92 49.6081 56.252 49.3097 56.9228 49.3097H58.6032C59.2672 49.3097 59.606 49.6013 59.606 50.1913V64.1137ZM80.1974 58.0307L74.4787 44.305H68.4822V69.9932H74.8784V56.5116L80.5971 69.9932H86.5936V44.305H80.1974V58.0307ZM95.5918 44.305H88.5925V69.9932H103.546V64.9885H95.5918V44.305ZM109.665 55.1486L106.304 44.305H99.149L106.223 61.6723V69.9932H113.222V61.591L119.896 44.305H112.782L109.665 55.1486Z" fill="black"/>
</svg>
