<svg width="15" height="13" viewBox="0 0 15 13" fill="none" xmlns="http://www.w3.org/2000/svg">
<path d="M0.740723 9.26915L4.25391 5.73516C4.85228 5.13325 5.82242 5.13325 6.42078 5.73516L9.93397 9.26915M8.9125 8.24163L9.87201 7.27644C10.4704 6.67453 11.4405 6.67453 12.0389 7.27644L14.0199 9.26915M1.76219 11.838H12.9984C13.5625 11.838 14.0199 11.3779 14.0199 10.8104V2.59027C14.0199 2.02278 13.5625 1.56274 12.9984 1.56274H1.76219C1.19805 1.56274 0.740723 2.02278 0.740723 2.59027V10.8104C0.740723 11.3779 1.19805 11.838 1.76219 11.838ZM8.9125 4.13155H8.91761V4.13668H8.9125V4.13155ZM9.16787 4.13155C9.16787 4.27342 9.05354 4.38843 8.9125 4.38843C8.77147 4.38843 8.65713 4.27342 8.65713 4.13155C8.65713 3.98968 8.77147 3.87467 8.9125 3.87467C9.05354 3.87467 9.16787 3.98968 9.16787 4.13155Z" stroke="white" stroke-width="1.5" stroke-linecap="round" stroke-linejoin="round"/>
</svg>
