<svg width="21" height="20" viewBox="0 0 21 20" fill="none" xmlns="http://www.w3.org/2000/svg">
<path fill-rule="evenodd" clip-rule="evenodd" d="M1 0.154785C1.41421 0.154785 1.75 0.490572 1.75 0.904785V1.4442L3.58819 0.984656C5.84613 0.42017 8.23152 0.682021 10.3132 1.72288L10.421 1.77674C12.1472 2.63985 14.1214 2.87045 16 2.42841L19.1096 1.69674C19.3465 1.641 19.5958 1.70367 19.7781 1.86483C19.9605 2.026 20.0533 2.26562 20.0271 2.50757C19.844 4.19792 19.75 5.91524 19.75 7.65479C19.75 9.40883 19.8455 11.1403 20.0317 12.8443C20.0728 13.2209 19.8266 13.569 19.4579 13.6558L16.3436 14.3885C14.1234 14.9109 11.7902 14.6384 9.75015 13.6184L9.64243 13.5645C7.88097 12.6838 5.86256 12.4622 3.95199 12.9399L1.75 13.4904V18.9048C1.75 19.319 1.41421 19.6548 1 19.6548C0.585786 19.6548 0.25 19.319 0.25 18.9048V0.904785C0.25 0.490572 0.585786 0.154785 1 0.154785Z" fill="#4A4739"/>
</svg>
